<?xml version="1.0" encoding="UTF-8" standalone="no"?>
<!-- Created with Inkscape (http://www.inkscape.org/) -->

<svg
   xmlns:osb="http://www.openswatchbook.org/uri/2009/osb"
   xmlns:dc="http://purl.org/dc/elements/1.1/"
   xmlns:cc="http://creativecommons.org/ns#"
   xmlns:rdf="http://www.w3.org/1999/02/22-rdf-syntax-ns#"
   xmlns:svg="http://www.w3.org/2000/svg"
   xmlns="http://www.w3.org/2000/svg"
   xmlns:sodipodi="http://sodipodi.sourceforge.net/DTD/sodipodi-0.dtd"
   xmlns:inkscape="http://www.inkscape.org/namespaces/inkscape"
   width="210mm"
   height="297mm"
   viewBox="0 0 744.09448819 1052.3622047"
   id="svg3391"
   version="1.1"
   inkscape:version="0.91 r13725"
   sodipodi:docname="logo_3.svg">
  <defs
     id="defs3393">
    <linearGradient
       id="linearGradient6022"
       osb:paint="solid">
      <stop
         style="stop-color:#000000;stop-opacity:1;"
         offset="0"
         id="stop6024" />
    </linearGradient>
  </defs>
  <sodipodi:namedview
     id="base"
     pagecolor="#ffffff"
     bordercolor="#666666"
     borderopacity="1.0"
     inkscape:pageopacity="0.0"
     inkscape:pageshadow="2"
     inkscape:zoom="1.979899"
     inkscape:cx="322.20047"
     inkscape:cy="587.88642"
     inkscape:document-units="px"
     inkscape:current-layer="g4233"
     showgrid="false"
     inkscape:window-width="2048"
     inkscape:window-height="1128"
     inkscape:window-x="0"
     inkscape:window-y="24"
     inkscape:window-maximized="1" />
  <metadata
     id="metadata3396">
    <rdf:RDF>
      <cc:Work
         rdf:about="">
        <dc:format>image/svg+xml</dc:format>
        <dc:type
           rdf:resource="http://purl.org/dc/dcmitype/StillImage" />
      </cc:Work>
    </rdf:RDF>
  </metadata>
  <g
     inkscape:label="Layer 1"
     inkscape:groupmode="layer"
     id="layer1">
    <g
       id="g4233">
      <g
         id="g4241">
        <g
           id="g4253">
          <g
             id="g4249">
            <g
               id="g4262">
              <g
                 id="g4279">
                <g
                   id="g4274">
                  <g
                     id="g4270" />
                </g>
              </g>
              <g
                 id="g4294">
                <g
                   id="g4289">
                  <g
                     id="g4285">
                    <g
                       id="g4302">
                      <g
                         id="g4308">
                        <g
                           id="g4351">
                          <g
                             id="g4342">
                            <g
                               id="g4334">
                              <g
                                 id="g4327">
                                <g
                                   id="g4321" />
                              </g>
                            </g>
                          </g>
                        </g>
                      </g>
                    </g>
                  </g>
                </g>
              </g>
            </g>
          </g>
        </g>
      </g>
      <rect
         style="fill:none"
         id="rect4317"
         width="111.62186"
         height="37.375645"
         x="235.36554"
         y="345.25543" />
      <rect
         style="fill:none"
         id="rect4319"
         width="312.13715"
         height="170.71577"
         x="74.751289"
         y="350.30618" />
      <g
         id="g5996"
         transform="translate(-3.9546732e-7,-3.5355367)"
         style="fill:#000000;fill-opacity:1;stroke:none;stroke-opacity:1">
        <g
           id="g6039"
           style="fill:#000000;fill-opacity:1">
          <g
             id="g6071"
             style="fill:#000000;fill-opacity:1">
            <g
               id="g6064"
               style="fill:#000000;fill-opacity:1">
              <g
                 id="g6058"
                 style="fill:#000000;fill-opacity:1">
                <g
                   id="g6081"
                   style="fill:#000000;fill-opacity:1">
                  <path
                     style="font-style:normal;font-variant:normal;font-weight:bold;font-stretch:normal;font-size:231.17500305px;line-height:125%;font-family:'Nimbus Roman No9 L';-inkscape-font-specification:'Nimbus Roman No9 L, Bold';text-align:start;letter-spacing:0px;word-spacing:0px;writing-mode:lr-tb;text-anchor:start;fill:#000000;fill-opacity:1;stroke:none;stroke-width:1px;stroke-linecap:butt;stroke-linejoin:miter;stroke-opacity:1"
                     d="M 153.03906 318.99219 L 153.03906 485.16211 L 457.09375 485.16211 L 457.09375 318.99219 L 153.03906 318.99219 z M 231.71875 324.84766 L 238.33789 324.84766 L 291.05859 443.74805 C 302.87961 470.42147 306.66242 475.16797 315.88281 475.16797 L 316.83008 475.16797 L 316.83008 480.82031 L 240.22852 480.82031 L 240.22852 475.16797 C 243.5384 474.71588 246.61282 474.49023 247.79492 474.49023 C 256.06964 474.03814 259.14258 471.77822 259.14258 467.03125 C 259.14258 462.05824 256.30587 453.92065 248.26758 436.28906 L 195.07227 436.28906 L 191.52734 445.10547 C 186.56252 457.31195 184.66992 462.96179 184.66992 465.90039 C 184.66992 471.77759 190.10784 474.26378 204.05664 475.16797 L 204.05664 480.82031 L 156.0625 480.82031 L 156.0625 475.16797 C 167.41068 473.13355 170.24845 469.74298 179.23242 448.7207 L 231.71875 324.84766 z M 369.30078 325.24219 C 416.82128 325.24219 452.04883 358.15932 452.04883 402.63086 C 452.04883 447.75639 417.29449 480.02148 368.35547 480.02148 C 319.41645 480.02148 284.66211 447.97514 284.66211 402.84961 C 284.66211 357.50608 319.88892 325.24219 369.30078 325.24219 z M 369.06445 332.43555 C 341.40327 332.43555 326.50977 357.72499 326.50977 404.8125 C 326.50977 448.84804 341.16712 472.82617 368.35547 472.82617 C 395.54381 472.82617 410.20117 448.84774 410.20117 404.1582 C 410.20117 358.81468 395.0707 332.43555 369.06445 332.43555 z M 220.8418 372.54297 L 198.61914 427.47266 L 244.7207 427.47266 L 220.8418 372.54297 z "
                     transform="translate(3.9546732e-7,3.5355367)"
                     id="text3346" />
                </g>
              </g>
            </g>
          </g>
        </g>
      </g>
      <rect
         style="fill:none"
         id="rect4361"
         width="338.40109"
         height="96.469566"
         x="94.954338"
         y="410.91534" />
      <rect
         style="fill:none;stroke:none;stroke-opacity:1;fill-opacity:1"
         id="rect4392"
         width="319.20819"
         height="94.954338"
         x="98.489876"
         y="411.92548" />
      <rect
         style="fill:none;fill-opacity:1;stroke:none;stroke-opacity:1"
         id="rect6004"
         width="325.7742"
         height="90.408653"
         x="140.91628"
         y="398.28842" />
      <rect
         style="fill:none;fill-opacity:0.47798743;stroke:none;stroke-opacity:1"
         id="rect6010"
         width="292.94424"
         height="100.0051"
         x="139.90613"
         y="523.0423" />
      <rect
         style="fill:none;fill-opacity:0.47798743;stroke:none;stroke-opacity:1"
         id="rect6016"
         width="356.58386"
         height="100.0051"
         x="116.67262"
         y="402.32904" />
      <rect
         style="fill:none;fill-opacity:1;stroke:none;stroke-opacity:1"
         id="rect6020"
         width="343.45187"
         height="92.428955"
         x="134.3503"
         y="404.34933" />
      <rect
         style="fill:none;fill-opacity:1;stroke:none;stroke-opacity:1"
         id="rect6028"
         width="331.33005"
         height="97.479721"
         x="137.38075"
         y="402.32904" />
      <rect
         style="fill:none;fill-opacity:1;stroke:none;stroke-opacity:1"
         id="rect6030"
         width="330.82495"
         height="87.88327"
         x="137.38075"
         y="404.85443" />
      <rect
         style="fill:none;fill-opacity:1;stroke:none;stroke-opacity:1"
         id="rect6087"
         width="344.9671"
         height="102.53049"
         x="134.3503"
         y="401.82397" />
      <rect
         style="fill:none;fill-opacity:1;stroke:none;stroke-opacity:1"
         id="rect6103"
         width="329.81482"
         height="194.95944"
         x="139.40105"
         y="305.3544" />
      <path
         style="fill:#000000;fill-opacity:0;stroke:none;stroke-opacity:1"
         d="m 153.35347,401.94734 0,-82.83251 151.77542,0 151.77542,0 0,82.83251 0,82.83251 -151.77542,0 -151.77542,0 0,-82.83251 z m 51.0127,76.25067 c 0,-2.00612 -0.21558,-3.10663 -0.63134,-3.22297 -0.34724,-0.0971 -2.83225,-0.42848 -5.52224,-0.73627 -8.19166,-0.93731 -12.16022,-2.98543 -12.99967,-6.70897 -0.72326,-3.20814 0.87561,-8.39317 7.88026,-25.55516 l 2.31915,-5.68211 26.35225,0 26.35226,0 3.72337,8.71256 c 8.24716,19.29804 8.94617,25.20126 3.28087,27.70729 -1.92853,0.85308 -9.25901,1.91307 -13.50553,1.95291 -1.37143,0.0129 -1.38896,0.0545 -1.38896,3.29603 l 0,3.283 38.3858,0 38.38579,0 0,-2.97642 c 0,-3.30268 -0.27217,-3.58619 -3.45057,-3.59431 -2.8745,-0.007 -6.65397,-2.47393 -9.43501,-6.15751 -3.77874,-5.00507 -10.34714,-19.12074 -38.91769,-83.63518 l -26.68222,-60.25047 -3.54683,0.14639 -3.54684,0.14639 -27.36353,64.5666 c -15.04995,35.51163 -28.49273,66.87687 -29.87286,69.70053 -4.78739,9.79474 -8.7707,13.69607 -15.39959,15.08263 l -2.90419,0.60746 0,3.18195 0,3.18194 24.24366,0 24.24366,0 0,-3.04631 z m 174.32408,1.50704 c 38.74246,-3.91915 66.39356,-28.17449 72.51495,-63.60957 1.15854,-6.70647 1.13234,-20.32864 -0.052,-27.02758 -4.21444,-23.83827 -19.17972,-43.74009 -41.19969,-54.79004 -12.3471,-6.19597 -25.17902,-9.07495 -40.52781,-9.09286 -42.816,-0.05 -75.02241,23.43421 -83.29809,60.73904 -0.76237,3.43661 -1.10363,7.2433 -1.30059,14.50807 -0.23122,8.52832 -0.12402,10.68686 0.79943,16.09745 3.54198,20.7529 14.73943,38.05596 31.97161,49.40474 16.75943,11.03743 38.86192,16.01954 61.09217,13.77075 z"
         id="path6130"
         inkscape:connector-curvature="0" />
      <path
         style="fill:#000000;fill-opacity:0;stroke:none;stroke-opacity:1"
         d="m 153.35347,401.94734 0,-82.83251 151.77542,0 151.77542,0 0,82.83251 0,82.83251 -151.77542,0 -151.77542,0 0,-82.83251 z m 51.0127,76.25067 c 0,-2.00612 -0.21558,-3.10663 -0.63134,-3.22297 -0.34724,-0.0971 -2.83225,-0.42848 -5.52224,-0.73627 -8.19166,-0.93731 -12.16022,-2.98543 -12.99967,-6.70897 -0.72326,-3.20814 0.87561,-8.39317 7.88026,-25.55516 l 2.31915,-5.68211 26.35225,0 26.35226,0 3.72337,8.71256 c 8.24716,19.29804 8.94617,25.20126 3.28087,27.70729 -1.92853,0.85308 -9.25901,1.91307 -13.50553,1.95291 -1.37143,0.0129 -1.38896,0.0545 -1.38896,3.29603 l 0,3.283 38.3858,0 38.38579,0 0,-2.97642 c 0,-3.30268 -0.27217,-3.58619 -3.45057,-3.59431 -2.8745,-0.007 -6.65397,-2.47393 -9.43501,-6.15751 -3.77874,-5.00507 -10.34714,-19.12074 -38.91769,-83.63518 l -26.68222,-60.25047 -3.54683,0.14639 -3.54684,0.14639 -27.36353,64.5666 c -15.04995,35.51163 -28.49273,66.87687 -29.87286,69.70053 -4.78739,9.79474 -8.7707,13.69607 -15.39959,15.08263 l -2.90419,0.60746 0,3.18195 0,3.18194 24.24366,0 24.24366,0 0,-3.04631 z m 174.32408,1.50704 c 38.74246,-3.91915 66.39356,-28.17449 72.51495,-63.60957 1.15854,-6.70647 1.13234,-20.32864 -0.052,-27.02758 -4.21444,-23.83827 -19.17972,-43.74009 -41.19969,-54.79004 -12.3471,-6.19597 -25.17902,-9.07495 -40.52781,-9.09286 -42.816,-0.05 -75.02241,23.43421 -83.29809,60.73904 -0.76237,3.43661 -1.10363,7.2433 -1.30059,14.50807 -0.23122,8.52832 -0.12402,10.68686 0.79943,16.09745 3.54198,20.7529 14.73943,38.05596 31.97161,49.40474 16.75943,11.03743 38.86192,16.01954 61.09217,13.77075 z"
         id="path6132"
         inkscape:connector-curvature="0" />
      <path
         style="fill:#ac0000;fill-opacity:0;stroke:none;stroke-opacity:1"
         d="m 153.35347,401.94734 0,-82.83251 151.77542,0 151.77542,0 0,82.83251 0,82.83251 -151.77542,0 -151.77542,0 0,-82.83251 z m 51.0127,76.25067 c 0,-2.00612 -0.21558,-3.10663 -0.63134,-3.22297 -0.34724,-0.0971 -2.83225,-0.42848 -5.52224,-0.73627 -8.19166,-0.93731 -12.16022,-2.98543 -12.99967,-6.70897 -0.72326,-3.20814 0.87561,-8.39317 7.88026,-25.55516 l 2.31915,-5.68211 26.35225,0 26.35226,0 3.72337,8.71256 c 8.24716,19.29804 8.94617,25.20126 3.28087,27.70729 -1.92853,0.85308 -9.25901,1.91307 -13.50553,1.95291 -1.37143,0.0129 -1.38896,0.0545 -1.38896,3.29603 l 0,3.283 38.3858,0 38.38579,0 0,-2.97642 c 0,-3.30268 -0.27217,-3.58619 -3.45057,-3.59431 -2.8745,-0.007 -6.65397,-2.47393 -9.43501,-6.15751 -3.77874,-5.00507 -10.34714,-19.12074 -38.91769,-83.63518 l -26.68222,-60.25047 -3.54683,0.14639 -3.54684,0.14639 -27.36353,64.5666 c -15.04995,35.51163 -28.49273,66.87687 -29.87286,69.70053 -4.78739,9.79474 -8.7707,13.69607 -15.39959,15.08263 l -2.90419,0.60746 0,3.18195 0,3.18194 24.24366,0 24.24366,0 0,-3.04631 z m 174.32408,1.50704 c 38.74246,-3.91915 66.39356,-28.17449 72.51495,-63.60957 1.15854,-6.70647 1.13234,-20.32864 -0.052,-27.02758 -4.21444,-23.83827 -19.17972,-43.74009 -41.19969,-54.79004 -12.3471,-6.19597 -25.17902,-9.07495 -40.52781,-9.09286 -42.816,-0.05 -75.02241,23.43421 -83.29809,60.73904 -0.76237,3.43661 -1.10363,7.2433 -1.30059,14.50807 -0.23122,8.52832 -0.12402,10.68686 0.79943,16.09745 3.54198,20.7529 14.73943,38.05596 31.97161,49.40474 16.75943,11.03743 38.86192,16.01954 61.09217,13.77075 z"
         id="path6134"
         inkscape:connector-curvature="0" />
      <path
         style="fill:#000000;fill-opacity:0;stroke:none;stroke-opacity:1"
         d="m 153.35347,401.94734 0,-82.83251 151.77542,0 151.77542,0 0,82.83251 0,82.83251 -151.77542,0 -151.77542,0 0,-82.83251 z m 51.0127,76.25067 c 0,-2.00612 -0.21558,-3.10663 -0.63134,-3.22297 -0.34724,-0.0971 -2.83225,-0.42848 -5.52224,-0.73627 -8.19166,-0.93731 -12.16022,-2.98543 -12.99967,-6.70897 -0.72326,-3.20814 0.87561,-8.39317 7.88026,-25.55516 l 2.31915,-5.68211 26.35225,0 26.35226,0 3.72337,8.71256 c 8.24716,19.29804 8.94617,25.20126 3.28087,27.70729 -1.92853,0.85308 -9.25901,1.91307 -13.50553,1.95291 -1.37143,0.0129 -1.38896,0.0545 -1.38896,3.29603 l 0,3.283 38.3858,0 38.38579,0 0,-2.97642 c 0,-3.30268 -0.27217,-3.58619 -3.45057,-3.59431 -2.8745,-0.007 -6.65397,-2.47393 -9.43501,-6.15751 -3.77874,-5.00507 -10.34714,-19.12074 -38.91769,-83.63518 l -26.68222,-60.25047 -3.54683,0.14639 -3.54684,0.14639 -27.36353,64.5666 c -15.04995,35.51163 -28.49273,66.87687 -29.87286,69.70053 -4.78739,9.79474 -8.7707,13.69607 -15.39959,15.08263 l -2.90419,0.60746 0,3.18195 0,3.18194 24.24366,0 24.24366,0 0,-3.04631 z m 174.32408,1.50704 c 38.74246,-3.91915 66.39356,-28.17449 72.51495,-63.60957 1.15854,-6.70647 1.13234,-20.32864 -0.052,-27.02758 -4.21444,-23.83827 -19.17972,-43.74009 -41.19969,-54.79004 -12.3471,-6.19597 -25.17902,-9.07495 -40.52781,-9.09286 -42.816,-0.05 -75.02241,23.43421 -83.29809,60.73904 -0.76237,3.43661 -1.10363,7.2433 -1.30059,14.50807 -0.23122,8.52832 -0.12402,10.68686 0.79943,16.09745 3.54198,20.7529 14.73943,38.05596 31.97161,49.40474 16.75943,11.03743 38.86192,16.01954 61.09217,13.77075 z"
         id="path6136"
         inkscape:connector-curvature="0"
         inkscape:export-filename="ao_logo.png"
         inkscape:export-xdpi="90"
         inkscape:export-ydpi="90" />
      <path
         style="fill:#ffffff;fill-opacity:1;stroke:none;stroke-opacity:1"
         d="m 359.27307,479.40913 c -0.69448,-0.10032 -3.30825,-0.43358 -5.80838,-0.74057 -9.60911,-1.17991 -20.86382,-4.84497 -29.99447,-9.76757 -14.57868,-7.85981 -26.41653,-20.83475 -32.56892,-35.69736 -4.52198,-10.92393 -6.13503,-20.2394 -5.7184,-33.02405 0.51365,-15.76193 4.14982,-27.52596 12.32437,-39.8728 3.79351,-5.72973 12.52203,-14.81058 17.82416,-18.54366 11.6173,-8.17939 24.76378,-13.19532 40.24586,-15.35546 8.93321,-1.24641 24.4877,-0.78188 32.77277,0.97875 16.92345,3.59633 30.30949,10.66923 41.65865,22.01155 10.58644,10.58006 16.9911,22.43916 20.28178,37.55447 0.95807,4.40081 1.12029,6.68173 1.12029,15.75253 0,11.45251 -0.71332,16.45779 -3.56303,25.00127 -9.53349,28.58165 -35.08389,47.75879 -68.62417,51.50663 -4.25603,0.47557 -17.1395,0.60232 -19.95051,0.19627 z m 19.61647,-7.7676 c 16.32781,-4.54682 26.11463,-19.30145 30.14759,-45.45053 1.12814,-7.3147 1.56331,-28.18279 0.76989,-36.91963 -1.62527,-17.89704 -5.804,-31.78632 -12.55349,-41.72538 -2.80717,-4.13374 -8.91937,-9.70506 -12.78775,-11.65613 -9.92867,-5.00766 -22.76622,-4.78902 -33.02139,0.5624 -3.73187,1.94739 -11.42029,9.50581 -13.80904,13.57556 -4.54922,7.75057 -7.80388,17.88661 -9.77862,30.45378 -0.97148,6.18242 -1.11426,9.134 -1.1361,23.48605 -0.0207,13.59551 0.1366,17.45601 0.91577,22.47589 2.6188,16.87194 7.50351,28.5268 15.22489,36.32643 5.41303,5.46788 11.72865,8.66375 19.60133,9.91879 4.01032,0.63931 12.25885,0.11346 16.42692,-1.04723 z"
         id="path3651"
         inkscape:connector-curvature="0" />
      <path
         style="fill:#ffffff;fill-opacity:1;stroke:none;stroke-opacity:1"
         d="m 156.23241,478.07319 0,-2.66605 3.48719,-0.89832 c 6.21706,-1.60155 9.87143,-5.12689 14.29572,-13.7909 2.47511,-4.84698 2.00071,-3.74041 35.15607,-82.00409 l 22.57371,-53.28554 3.2811,-0.1285 3.2811,-0.12851 27.73236,62.64865 c 33.33259,75.29985 34.20472,77.15146 38.95051,82.69585 2.31675,2.7066 6.27872,4.66762 9.43028,4.66762 l 2.42621,0 0,2.77792 0,2.77792 -38.13326,0 -38.13326,0 0,-2.77792 c 0,-2.30876 0.14929,-2.77799 0.88389,-2.77834 0.48613,-2.3e-4 3.38401,-0.23626 6.43972,-0.52451 8.77164,-0.82745 11.36422,-2.63432 11.36422,-7.92017 0,-4.28393 -2.77079,-12.59279 -8.42645,-25.26874 l -2.30985,-5.17703 -26.87868,0 -26.87868,0 -4.32568,10.98541 c -5.33518,13.54913 -6.1192,16.18263 -5.80163,19.48758 0.20326,2.11536 0.54957,2.82622 2.04409,4.19585 2.40819,2.20694 9.59066,4.21056 15.12445,4.21911 l 1.89404,0.003 0,2.77792 0,2.77792 -23.73859,0 -23.73858,0 0,-2.66605 z m 87.71508,-53.01861 c -0.64108,-1.45841 -6.02645,-13.8454 -11.96748,-27.52665 -5.94103,-13.68126 -10.95061,-24.87501 -11.13242,-24.87501 -0.30887,0 -21.50124,51.97366 -22.05354,54.08566 -0.24664,0.94315 0.33655,0.96765 23.033,0.96765 l 23.28604,0 -1.1656,-2.65165 z"
         id="path3653"
         inkscape:connector-curvature="0" />
    </g>
    <rect
       id="rect4225"
       width="322.85715"
       height="128.57143"
       x="367.14285"
       y="247.3622"
       style="fill:none" />
    <rect
       style="fill:none"
       id="rect4227"
       width="7.1428571"
       height="1.4285715"
       x="521.42859"
       y="298.79077" />
    <rect
       style="fill:none"
       id="rect4229"
       width="317.14285"
       height="177.85715"
       x="71.428574"
       y="347.36221" />
    <rect
       style="fill:none"
       id="rect4231"
       width="317.85712"
       height="183.57143"
       x="66.428574"
       y="343.07648" />
    <rect
       style="fill:none"
       id="rect4239"
       width="310"
       height="171.42857"
       x="76.428574"
       y="350.93362" />
    <rect
       style="fill:none"
       id="rect4247"
       width="212.85715"
       height="54.285713"
       x="147.85715"
       y="403.79077" />
    <rect
       style="fill:none"
       id="rect4268"
       width="315.00018"
       height="177.14288"
       x="74.285713"
       y="348.07648" />
  </g>
</svg>
